{"glyphs":{":":{"x_min":0,"x_max":240,"ha":240,"o":"m 120 408 q 97 408 82 422 q 66 435 66 471 q 66 507 82 520 q 97 534 120 534 q 142 534 158 520 q 175 507 175 471 q 175 435 158 422 q 142 408 120 408 z m 120 -7 q 97 -7 82 7 q 66 21 66 57 q 66 93 82 107 q 97 121 120 121 q 142 121 158 107 q 175 93 175 57 q 175 21 158 7 q 142 -7 120 -7 z"},"$":{"x_min":0,"x_max":477,"ha":477,"o":"m 218 -79 l 218 40 q 137 43 93 79 q 49 115 49 176 q 49 204 66 222 q 83 241 113 241 q 119 173 142 130 q 166 88 218 83 l 218 334 q 136 374 103 418 q 70 461 70 526 q 70 594 112 634 q 154 675 218 683 l 218 760 l 260 760 l 260 684 q 334 682 368 651 q 402 620 402 576 q 402 547 384 530 q 366 512 333 512 q 333 542 326 572 q 320 601 304 620 q 288 640 260 642 l 260 405 q 340 364 380 320 q 420 275 420 210 q 420 138 377 95 q 334 52 260 42 l 260 -79 z m 218 427 l 218 642 q 184 635 166 608 q 147 581 147 542 q 147 498 164 472 q 182 447 218 427 z m 260 85 q 300 92 321 120 q 342 149 342 192 q 342 233 323 262 q 304 291 260 315 z"},"?":{"x_min":0,"x_max":431,"ha":431,"o":"m 171 207 l 164 348 q 238 384 266 436 q 294 488 294 552 q 294 605 272 640 q 249 676 202 676 q 151 676 131 640 q 111 605 111 551 q 76 551 55 566 q 34 580 34 611 q 34 658 76 691 q 118 724 200 724 q 284 724 335 678 q 386 631 386 546 q 386 463 345 410 q 304 358 225 320 l 218 207 z m 193 -7 q 170 -7 155 7 q 140 21 140 57 q 140 93 155 107 q 170 121 193 121 q 216 121 232 107 q 249 93 249 57 q 249 21 232 7 q 216 -7 193 -7 z"},"<":{"x_min":0,"x_max":465,"ha":465,"o":"m 416 111 l 50 340 l 50 375 l 416 605 l 416 540 l 131 357 l 416 177 z"},"'":{"x_min":0,"x_max":199,"ha":199,"o":"m 79 482 l 51 714 l 148 714 l 120 482 z"},"=":{"x_min":0,"x_max":465,"ha":465,"o":"m 50 424 l 50 482 l 416 482 l 416 424 z m 50 232 l 50 290 l 416 290 l 416 232 z"},"a":{"x_min":0,"x_max":487,"ha":487,"o":"m 173 -10 q 118 -10 80 29 q 42 68 42 150 q 42 230 90 268 q 138 305 236 309 l 306 312 l 306 373 q 306 428 292 462 q 279 497 230 497 q 183 497 169 466 q 155 436 155 388 q 77 388 77 450 q 77 497 122 522 q 166 546 236 546 q 316 546 356 506 q 396 467 396 372 l 396 113 q 396 71 408 56 q 420 41 448 41 l 451 41 l 451 0 l 328 0 l 314 87 l 308 87 q 290 59 272 37 q 255 15 232 2 q 209 -10 173 -10 z m 199 45 q 248 45 278 86 q 307 127 307 191 l 307 273 l 256 270 q 187 266 160 234 q 134 203 134 144 q 134 98 150 72 q 165 45 199 45 z"},"L":{"x_min":0,"x_max":536,"ha":536,"o":"m 31 0 l 31 41 l 48 41 q 74 41 93 54 q 112 67 112 111 l 112 602 q 112 647 93 660 q 74 673 46 673 l 31 673 l 31 714 l 288 714 l 288 673 l 272 673 q 242 673 224 660 q 207 648 207 605 l 207 49 l 374 49 q 412 49 428 75 q 445 101 450 139 l 459 214 l 502 214 l 496 0 z"},"3":{"x_min":0,"x_max":477,"ha":477,"o":"m 218 -10 q 126 -10 84 23 q 43 56 43 102 q 43 131 62 148 q 80 165 108 165 q 108 113 136 78 q 165 43 218 43 q 250 43 277 58 q 304 74 320 108 q 337 142 337 199 q 337 267 300 307 q 263 347 192 347 l 155 347 l 155 395 l 192 395 q 249 395 282 436 q 316 478 316 550 q 316 609 294 642 q 273 675 227 675 q 191 675 170 655 q 150 635 142 602 q 133 570 133 530 q 102 530 80 543 q 57 556 57 591 q 57 646 102 685 q 146 724 232 724 q 311 724 360 682 q 410 639 410 561 q 410 494 372 444 q 334 395 278 379 q 312 374 348 356 q 383 338 407 300 q 431 262 431 198 q 431 140 412 100 q 393 60 362 36 q 331 12 294 1 q 256 -10 218 -10 z"},";":{"x_min":0,"x_max":240,"ha":240,"o":"m 120 408 q 97 408 82 422 q 66 435 66 471 q 66 507 82 520 q 97 534 120 534 q 142 534 158 520 q 175 507 175 471 q 175 435 158 422 q 142 408 120 408 z m 42 -154 l 42 -115 q 81 -100 100 -76 q 118 -53 118 -25 q 118 -11 109 -2 q 100 6 89 14 q 78 21 69 33 q 60 45 60 66 q 60 92 75 106 q 90 121 113 121 q 142 121 160 98 q 178 74 178 31 q 178 -29 147 -79 q 116 -129 42 -154 z"},"J":{"x_min":0,"x_max":314,"ha":314,"o":"m -8 -240 l -8 -194 l 1 -194 q 36 -194 62 -178 q 87 -161 101 -120 q 115 -80 115 -10 l 115 605 q 115 648 96 660 q 77 673 50 673 l 34 673 l 34 714 l 290 714 l 290 673 l 274 673 q 247 673 228 660 q 210 647 210 601 l 210 -9 q 210 -98 182 -148 q 155 -199 110 -220 q 64 -240 10 -240 z"},"V":{"x_min":0,"x_max":579,"ha":579,"o":"m 252 0 l 72 620 q 63 652 50 662 q 38 673 13 673 l 0 673 l 0 714 l 241 714 l 241 673 l 221 673 q 171 673 171 633 q 171 622 174 610 q 176 599 180 586 l 269 259 q 282 212 291 175 q 300 138 307 103 q 314 139 323 176 q 332 212 346 260 l 437 579 q 441 592 444 606 q 446 620 446 631 q 446 673 392 673 l 372 673 l 372 714 l 579 714 l 579 673 l 565 673 q 539 673 526 658 q 512 644 498 595 l 325 0 z"},"\"":{"x_min":0,"x_max":363,"ha":363,"o":"m 243 482 l 215 714 l 312 714 l 285 482 z m 79 482 l 51 714 l 148 714 l 120 482 z"},"7":{"x_min":0,"x_max":477,"ha":477,"o":"m 152 0 l 366 636 l 141 636 q 96 636 92 583 l 88 535 l 46 535 l 51 714 l 435 714 l 435 686 l 217 0 z"},"S":{"x_min":0,"x_max":468,"ha":468,"o":"m 223 -10 q 129 -10 84 28 q 40 66 40 128 q 40 159 58 178 q 76 196 107 196 q 110 127 141 82 q 172 37 230 37 q 285 37 316 70 q 346 102 346 162 q 346 202 331 230 q 316 257 286 280 q 255 302 207 326 q 130 365 92 414 q 55 464 55 546 q 55 600 80 640 q 105 680 148 702 q 190 724 244 724 q 296 724 333 708 q 370 691 389 665 q 408 639 408 611 q 408 549 336 549 q 336 582 326 611 q 315 640 293 658 q 271 676 236 676 q 188 676 162 644 q 137 612 137 559 q 137 522 149 496 q 161 470 190 448 q 219 425 269 400 q 346 362 388 315 q 429 268 429 188 q 429 93 372 42 q 314 -10 223 -10 z"},"}":{"x_min":0,"x_max":367,"ha":367,"o":"m 40 -128 l 40 -86 l 67 -86 q 104 -86 120 -59 q 135 -32 135 19 l 135 192 q 135 242 158 275 q 180 308 230 317 l 230 318 q 182 326 158 359 q 135 392 135 441 l 135 612 q 135 664 120 691 q 104 718 67 718 l 40 718 l 40 760 l 101 760 q 162 760 194 722 q 227 685 227 617 l 227 443 q 227 382 256 360 q 286 338 328 337 l 328 297 q 300 296 277 286 q 254 276 240 253 q 227 230 227 189 l 227 16 q 227 -51 194 -90 q 162 -128 101 -128 z"},"Z":{"x_min":0,"x_max":516,"ha":516,"o":"m 31 0 l 31 39 l 355 665 l 170 665 q 131 665 116 640 q 102 616 99 584 l 95 541 l 48 541 l 52 714 l 465 714 l 465 674 l 140 49 l 354 49 q 394 49 410 73 q 425 97 429 131 l 432 173 l 479 173 l 476 0 z"},"x":{"x_min":0,"x_max":502,"ha":502,"o":"m 5 0 l 5 41 l 13 41 q 44 41 62 54 q 80 67 106 105 l 212 271 l 106 442 q 88 468 70 482 q 53 495 32 495 l 20 495 l 20 536 l 245 536 l 245 495 l 243 495 q 214 495 205 486 q 196 478 196 466 q 196 456 200 446 q 205 436 215 420 l 270 326 l 314 407 q 324 424 330 438 q 336 452 336 466 q 336 484 323 490 q 310 495 291 495 l 287 495 l 287 536 l 475 536 l 475 495 l 468 495 q 442 495 425 484 q 408 472 382 431 l 294 291 l 419 94 q 438 65 454 53 q 471 41 487 41 l 498 41 l 498 0 l 270 0 l 270 41 l 274 41 q 325 41 325 74 q 325 85 318 98 q 312 112 292 143 l 236 236 l 178 136 q 169 120 162 105 q 155 90 155 73 q 155 56 168 48 q 180 41 208 41 l 210 41 l 210 0 z"},")":{"x_min":0,"x_max":303,"ha":303,"o":"m 27 -127 l 27 -83 q 84 -42 112 22 q 140 85 149 162 q 158 238 158 317 q 158 396 149 472 q 140 548 112 611 q 84 674 27 716 l 27 759 q 108 724 158 666 q 209 609 232 524 q 255 438 255 317 q 255 196 232 110 q 209 24 158 -34 q 108 -91 27 -127 z"},"&":{"x_min":0,"x_max":643,"ha":643,"o":"m 234 -10 q 136 -10 84 47 q 31 104 31 199 q 31 256 50 294 q 68 332 100 358 q 132 384 172 404 q 139 447 122 484 q 106 522 106 574 q 106 639 144 682 q 183 724 268 724 q 324 724 358 704 q 391 684 406 652 q 421 619 421 582 q 421 518 388 476 q 354 435 280 400 l 429 207 q 441 250 446 297 q 450 344 450 382 l 450 421 l 607 421 l 607 380 l 598 380 q 579 380 562 376 q 544 373 530 360 q 517 346 510 315 q 502 280 492 241 q 483 202 467 165 l 549 67 q 562 51 579 46 q 596 41 626 41 l 634 41 l 634 0 l 491 0 l 421 90 q 392 49 347 20 q 302 -10 234 -10 z m 250 435 q 301 460 324 494 q 347 528 347 581 q 347 622 328 650 q 310 678 269 678 q 230 678 210 651 q 189 624 189 580 q 189 542 204 510 q 218 478 250 435 z m 249 45 q 296 45 332 68 q 367 92 390 127 l 203 367 q 167 344 144 305 q 122 266 122 199 q 122 122 158 84 q 193 45 249 45 z"},"_":{"x_min":0,"x_max":391,"ha":391,"o":"m -4 -142 l -4 -83 l 395 -83 l 395 -142 z"},"v":{"x_min":0,"x_max":498,"ha":498,"o":"m 206 0 l 70 442 q 60 474 46 484 q 31 495 5 495 l 5 536 l 222 536 l 222 495 l 211 495 q 164 495 164 455 q 164 433 172 406 l 228 220 q 240 182 251 139 q 262 96 267 71 q 272 90 283 128 q 294 166 307 208 l 363 389 q 376 431 376 456 q 376 495 326 495 l 318 495 l 318 536 l 496 536 l 496 495 l 485 495 q 460 495 448 480 q 437 464 423 417 l 290 0 z"},"O":{"x_min":0,"x_max":640,"ha":640,"o":"m 320 -10 q 228 -10 168 36 q 108 82 78 165 q 48 248 48 359 q 48 470 78 552 q 108 634 168 680 q 229 725 321 725 q 408 725 468 680 q 529 634 560 552 q 592 469 592 358 q 592 247 560 164 q 529 82 468 36 q 408 -10 320 -10 z m 320 43 q 413 43 451 126 q 489 210 489 358 q 489 507 451 590 q 413 672 321 672 q 230 672 190 590 q 151 507 151 358 q 151 210 190 126 q 230 43 320 43 z"},"(":{"x_min":0,"x_max":303,"ha":303,"o":"m 276 -127 q 194 -91 144 -34 q 95 24 72 110 q 49 196 49 317 q 49 438 72 524 q 95 609 144 666 q 194 724 276 759 l 276 716 q 218 674 190 611 q 163 548 154 472 q 146 396 146 317 q 146 238 154 162 q 163 85 190 22 q 218 -42 276 -83 z"},"C":{"x_min":0,"x_max":533,"ha":533,"o":"m 312 -10 q 226 -10 167 36 q 108 82 78 164 q 48 247 48 358 q 48 468 79 550 q 110 633 172 678 q 233 724 324 724 q 411 724 456 690 q 502 657 502 611 q 502 580 480 562 q 459 544 424 544 q 424 576 414 606 q 404 635 380 654 q 357 672 317 672 q 228 672 190 588 q 151 505 151 358 q 151 215 192 132 q 234 49 327 49 q 391 49 426 76 q 462 103 485 139 q 500 129 500 103 q 500 80 480 54 q 461 27 420 8 q 378 -10 312 -10 z"},"W":{"x_min":0,"x_max":896,"ha":896,"o":"m 226 0 l 78 620 q 70 652 56 662 q 43 673 18 673 l 7 673 l 7 714 l 250 714 l 250 673 l 230 673 q 179 673 179 634 q 179 624 182 612 q 184 601 186 589 l 259 262 q 269 216 278 176 q 286 135 292 99 q 298 139 308 186 q 318 232 330 284 l 433 707 l 505 707 l 604 270 q 615 220 624 178 q 634 136 640 98 q 646 133 653 168 q 660 204 671 252 l 746 572 q 749 586 752 604 q 756 622 756 633 q 756 655 742 664 q 728 673 699 673 l 680 673 l 680 714 l 891 714 l 891 673 l 874 673 q 849 673 836 658 q 822 644 809 595 l 668 0 l 579 0 l 450 568 l 316 0 z"},"A":{"x_min":0,"x_max":609,"ha":609,"o":"m 1 0 l 1 41 l 16 41 q 40 41 53 56 q 66 71 82 119 l 270 714 l 345 714 l 538 89 q 546 61 560 51 q 574 41 600 41 l 609 41 l 609 0 l 366 0 l 366 41 l 386 41 q 437 41 437 83 q 437 92 434 106 q 431 121 427 135 l 396 240 l 175 240 l 146 142 q 142 130 138 114 q 135 99 135 88 q 135 41 190 41 l 212 41 l 212 0 z m 192 289 l 380 289 l 327 475 q 314 520 304 556 q 294 593 287 623 q 281 593 272 559 q 262 525 250 485 z"},"f":{"x_min":0,"x_max":320,"ha":320,"o":"m 22 0 l 22 41 l 34 41 q 52 41 68 46 q 84 51 94 66 q 103 82 103 113 l 103 488 l 25 488 l 25 536 l 103 536 l 103 587 q 103 676 144 723 q 186 770 262 770 q 326 770 352 750 q 379 730 379 701 q 379 676 360 660 q 342 644 307 644 q 307 675 296 700 q 286 725 255 725 q 220 725 206 692 q 192 658 192 596 l 192 536 l 312 536 l 312 488 l 192 488 l 192 113 q 192 66 212 54 q 232 41 260 41 l 293 41 l 293 0 z"},"Q":{"x_min":0,"x_max":640,"ha":640,"o":"m 480 -229 q 434 -229 390 -210 q 346 -190 315 -142 q 284 -94 279 -9 q 201 0 150 48 q 98 96 73 176 q 48 255 48 359 q 48 470 78 552 q 108 634 168 680 q 229 725 321 725 q 408 725 468 680 q 529 634 560 552 q 592 469 592 358 q 592 211 537 114 q 482 17 381 -5 q 386 -72 403 -111 q 420 -150 447 -166 q 474 -182 508 -182 l 522 -182 l 522 -229 z m 320 43 q 413 43 451 126 q 489 210 489 358 q 489 507 451 590 q 413 672 321 672 q 229 672 190 590 q 151 507 151 358 q 151 210 190 126 q 228 43 320 43 z"},"w":{"x_min":0,"x_max":735,"ha":735,"o":"m 177 0 l 64 442 q 56 474 42 484 q 28 495 3 495 l 1 495 l 1 536 l 214 536 l 214 495 l 207 495 q 182 495 168 486 q 155 478 155 453 q 155 445 158 433 q 160 421 163 410 l 201 239 q 206 215 212 186 q 218 156 223 129 q 228 102 230 86 l 233 86 q 236 102 242 127 q 247 152 254 180 q 261 207 268 230 l 357 533 l 410 533 l 493 237 q 500 215 507 186 q 514 157 520 130 q 526 102 529 85 l 531 85 q 535 110 542 148 q 550 186 562 233 l 604 396 q 607 409 610 424 q 612 438 612 446 q 612 495 559 495 l 553 495 l 553 536 l 735 536 l 735 495 l 723 495 q 699 495 686 480 q 673 466 660 417 l 550 0 l 477 0 l 364 424 l 247 0 z"},"-":{"x_min":0,"x_max":265,"ha":265,"o":"m 22 236 l 22 309 l 244 309 l 244 236 z"},"E":{"x_min":0,"x_max":536,"ha":536,"o":"m 31 0 l 31 41 l 47 41 q 76 41 94 53 q 112 65 112 108 l 112 601 q 112 648 93 660 q 74 673 47 673 l 31 673 l 31 714 l 469 714 l 474 540 l 426 540 l 421 582 q 419 615 402 640 q 385 665 346 665 l 207 665 l 207 398 l 411 398 l 411 350 l 207 350 l 207 49 l 367 49 q 408 49 426 74 q 444 99 449 132 l 454 174 l 502 174 l 496 0 z"},"s":{"x_min":0,"x_max":388,"ha":388,"o":"m 184 -10 q 115 -10 74 16 q 34 42 34 95 q 34 131 54 145 q 73 159 93 159 q 93 106 116 70 q 138 35 187 35 q 233 35 256 59 q 278 83 278 126 q 278 163 257 185 q 236 207 180 236 q 133 260 104 282 q 74 305 60 334 q 46 362 46 405 q 46 472 90 508 q 134 545 204 545 q 271 545 304 518 q 337 490 337 452 q 337 426 321 410 q 305 394 276 394 q 276 501 196 501 q 157 501 138 479 q 119 457 119 422 q 119 382 143 360 q 167 339 223 311 q 290 279 322 243 q 353 207 353 144 q 353 71 308 30 q 263 -10 184 -10 z"},">":{"x_min":0,"x_max":465,"ha":465,"o":"m 50 111 l 50 177 l 334 357 l 50 540 l 50 605 l 416 375 l 416 340 z"},"l":{"x_min":0,"x_max":270,"ha":270,"o":"m 12 0 l 12 41 l 22 41 q 53 41 72 54 q 90 68 90 115 l 90 651 q 90 695 69 707 q 48 719 22 719 l 12 719 l 12 760 l 180 760 l 180 115 q 180 68 199 54 q 218 41 248 41 l 258 41 l 258 0 z"},"8":{"x_min":0,"x_max":477,"ha":477,"o":"m 234 -10 q 168 -10 124 14 q 81 39 60 81 q 38 123 38 175 q 38 225 56 260 q 73 296 102 322 q 132 347 168 366 q 119 397 88 440 q 57 482 57 547 q 57 595 76 636 q 96 676 137 700 q 178 724 242 724 q 325 724 370 677 q 415 630 415 556 q 415 488 384 448 q 353 408 301 380 q 363 346 402 302 q 440 257 440 182 q 440 91 384 40 q 329 -10 234 -10 z m 259 402 q 302 430 318 466 q 334 502 334 555 q 334 586 324 614 q 315 641 294 658 q 273 676 239 676 q 192 676 168 644 q 144 611 144 559 q 144 501 174 468 q 204 434 259 402 z m 237 38 q 290 38 322 72 q 353 107 353 168 q 353 220 320 259 q 287 298 208 341 q 169 315 147 274 q 125 232 125 176 q 125 112 154 75 q 182 38 237 38 z"},"\\":{"x_min":0,"x_max":246,"ha":246,"o":"m 194 -121 l 0 760 l 52 760 l 246 -121 z"},"e":{"x_min":0,"x_max":462,"ha":462,"o":"m 248 -10 q 151 -10 98 62 q 46 134 46 264 q 46 405 96 476 q 147 546 239 546 q 324 546 372 485 q 421 424 421 305 l 421 263 l 137 263 q 138 151 171 99 q 204 47 265 47 q 309 47 338 70 q 368 93 384 124 q 392 120 398 112 q 404 104 404 90 q 404 70 388 46 q 371 23 336 6 q 302 -10 248 -10 z m 138 314 l 330 314 q 329 395 309 445 q 289 495 240 495 q 192 495 166 448 q 141 401 138 314 z"},"b":{"x_min":0,"x_max":529,"ha":529,"o":"m 310 -10 q 260 -10 228 14 q 197 39 179 78 l 173 78 l 156 0 l 15 0 l 15 41 l 22 41 q 50 41 70 54 q 91 66 91 113 l 91 651 q 91 695 70 707 q 50 719 22 719 l 15 719 l 15 760 l 180 760 l 180 575 q 180 558 180 532 q 179 507 178 482 q 178 458 177 444 l 180 444 q 199 490 230 518 q 260 546 313 546 q 396 546 440 480 q 483 413 483 269 q 483 124 438 57 q 392 -10 310 -10 z m 292 48 q 345 48 368 105 q 392 162 392 271 q 392 381 368 435 q 345 489 291 489 q 228 489 204 434 q 180 378 180 270 q 180 162 204 105 q 228 48 292 48 z"},"%":{"x_min":0,"x_max":766,"ha":766,"o":"m 179 280 q 104 280 70 341 q 37 402 37 503 q 37 604 70 664 q 104 724 180 724 q 251 724 286 664 q 322 604 322 503 q 322 402 286 341 q 251 280 179 280 z m 201 0 l 504 714 l 562 714 l 260 0 z m 179 318 q 217 318 232 366 q 246 414 246 503 q 246 591 232 638 q 218 686 180 686 q 142 686 127 638 q 112 591 112 503 q 112 414 127 366 q 142 318 179 318 z m 587 -10 q 512 -10 478 51 q 445 112 445 213 q 445 314 478 374 q 512 434 588 434 q 659 434 694 374 q 730 314 730 213 q 730 112 694 51 q 659 -10 587 -10 z m 587 28 q 625 28 640 76 q 654 124 654 213 q 654 301 640 348 q 625 396 587 396 q 550 396 535 348 q 520 301 520 213 q 520 124 535 76 q 550 28 587 28 z"},"m":{"x_min":0,"x_max":812,"ha":812,"o":"m 22 0 l 22 41 l 35 41 q 64 41 81 54 q 98 66 98 113 l 98 426 q 98 471 80 483 q 62 495 33 495 l 31 495 l 31 536 l 172 536 l 184 454 l 188 454 q 211 506 242 526 q 274 546 318 546 q 360 546 393 525 q 426 504 442 450 l 447 450 q 470 506 504 526 q 538 546 582 546 q 648 546 685 499 q 722 452 722 349 l 722 113 q 722 66 740 54 q 758 41 787 41 l 789 41 l 789 0 l 633 0 l 633 346 q 633 411 614 447 q 596 483 550 483 q 514 483 494 462 q 473 442 464 408 q 456 374 456 334 l 456 113 q 456 66 474 54 q 492 41 520 41 l 523 41 l 523 0 l 368 0 l 368 346 q 368 411 350 447 q 331 483 285 483 q 249 483 228 460 q 207 438 198 401 q 188 364 188 321 l 188 108 q 188 64 208 52 q 228 41 256 41 l 258 41 l 258 0 z"},"#":{"x_min":0,"x_max":478,"ha":478,"o":"m 54 0 l 93 206 l 12 206 l 12 260 l 104 260 l 141 459 l 44 459 l 44 514 l 152 514 l 188 714 l 246 714 l 208 514 l 323 514 l 360 714 l 417 714 l 379 514 l 465 514 l 465 459 l 369 459 l 331 260 l 433 260 l 433 206 l 321 206 l 282 0 l 226 0 l 264 206 l 150 206 l 111 0 z m 160 260 l 275 260 l 312 459 l 198 459 z"},",":{"x_min":0,"x_max":220,"ha":220,"o":"m 31 -154 l 31 -115 q 69 -100 88 -76 q 107 -52 107 -25 q 107 -11 98 -2 q 89 6 78 14 q 67 21 58 33 q 49 45 49 66 q 49 92 64 106 q 80 121 102 121 q 130 121 148 98 q 167 74 167 31 q 167 -29 136 -79 q 105 -129 31 -154 z"},"n":{"x_min":0,"x_max":554,"ha":554,"o":"m 22 0 l 22 41 l 30 41 q 58 41 78 54 q 98 66 98 113 l 98 427 q 98 471 79 483 q 60 495 32 495 l 27 495 l 27 536 l 173 536 l 184 454 l 188 454 q 211 506 244 526 q 276 546 321 546 q 388 546 426 499 q 463 452 463 349 l 463 113 q 463 66 480 54 q 498 41 526 41 l 530 41 l 530 0 l 374 0 l 374 346 q 374 410 355 447 q 336 484 288 484 q 249 484 227 460 q 205 437 196 400 q 187 363 187 321 l 187 108 q 187 64 206 52 q 224 41 253 41 l 258 41 l 258 0 z"},"h":{"x_min":0,"x_max":547,"ha":547,"o":"m 15 0 l 15 41 l 22 41 q 50 41 70 54 q 90 66 90 113 l 90 651 q 90 695 69 707 q 48 719 22 719 l 15 719 l 15 760 l 180 760 l 180 534 q 180 508 178 483 q 176 458 176 454 l 180 454 q 196 492 228 519 q 260 546 312 546 q 382 546 419 499 q 456 452 456 349 l 456 113 q 456 66 474 54 q 492 41 521 41 l 523 41 l 523 0 l 367 0 l 367 346 q 367 411 348 447 q 328 483 278 483 q 226 483 203 439 q 180 395 180 321 l 180 108 q 180 64 200 52 q 220 41 248 41 l 250 41 l 250 0 z"},"z":{"x_min":0,"x_max":439,"ha":439,"o":"m 33 0 l 33 40 l 285 487 l 159 487 q 123 487 110 466 q 97 446 88 407 l 85 396 l 46 396 l 55 536 l 389 536 l 389 495 l 136 49 l 285 49 q 318 49 332 72 q 345 94 352 134 l 357 161 l 395 161 l 390 0 z"},"B":{"x_min":0,"x_max":566,"ha":566,"o":"m 31 0 l 31 41 l 47 41 q 76 41 94 54 q 112 67 112 113 l 112 605 q 112 649 92 661 q 73 673 47 673 l 31 673 l 31 714 l 268 714 q 380 714 436 672 q 492 630 492 539 q 492 473 459 435 q 426 397 380 381 l 380 376 q 441 366 479 320 q 517 275 517 193 q 517 0 293 0 z m 206 399 l 263 399 q 335 399 364 432 q 392 465 392 535 q 392 609 362 637 q 331 665 262 665 l 206 665 z m 206 49 l 286 49 q 356 49 386 82 q 417 115 417 196 q 417 274 388 312 q 360 350 288 350 l 206 350 z"},"K":{"x_min":0,"x_max":608,"ha":608,"o":"m 31 0 l 31 41 l 45 41 q 74 41 93 53 q 112 65 112 108 l 112 606 q 112 648 94 660 q 75 673 47 673 l 31 673 l 31 714 l 284 714 l 284 673 l 271 673 q 242 673 224 660 q 207 647 207 603 l 207 310 l 379 556 q 407 595 418 616 q 430 638 430 652 q 430 665 419 670 q 408 674 385 674 l 385 714 l 579 714 l 579 674 q 549 674 522 650 q 496 625 463 581 l 339 415 l 522 122 q 547 83 569 62 q 591 41 615 41 l 618 41 l 618 0 l 592 0 q 542 0 512 8 q 483 16 463 38 q 443 60 420 100 l 277 342 l 207 259 l 207 111 q 207 67 226 54 q 244 41 273 41 l 284 41 l 284 0 z"},"R":{"x_min":0,"x_max":569,"ha":569,"o":"m 31 0 l 31 41 l 45 41 q 73 41 92 52 q 112 64 112 108 l 112 605 q 112 649 92 661 q 72 673 45 673 l 31 673 l 31 714 l 268 714 q 384 714 438 668 q 493 622 493 524 q 493 469 476 432 q 458 395 429 372 q 400 349 367 337 l 482 121 q 503 82 524 62 q 544 41 570 41 l 573 41 l 573 0 l 558 0 q 510 0 480 7 q 449 14 429 33 q 409 52 391 90 l 278 315 l 207 315 l 207 108 q 207 64 226 52 q 244 41 273 41 l 284 41 l 284 0 z m 207 361 l 257 361 q 330 361 362 402 q 393 443 393 521 q 393 595 363 631 q 333 667 263 667 l 207 667 z"},"T":{"x_min":0,"x_max":530,"ha":530,"o":"m 126 0 l 126 41 l 144 41 q 173 41 194 52 q 216 64 216 108 l 216 665 l 137 665 q 100 665 85 640 q 70 615 66 582 l 62 540 l 16 540 l 20 714 l 509 714 l 513 540 l 468 540 l 462 582 q 459 615 444 640 q 429 665 391 665 l 311 665 l 311 113 q 311 66 332 54 q 353 41 383 41 l 401 41 l 401 0 z"},"P":{"x_min":0,"x_max":521,"ha":521,"o":"m 31 0 l 31 41 l 45 41 q 74 41 93 54 q 112 66 112 113 l 112 605 q 112 649 92 661 q 73 673 46 673 l 31 673 l 31 714 l 277 714 q 388 714 440 659 q 493 604 493 505 q 493 445 470 394 q 448 342 396 310 q 344 278 258 278 l 207 278 l 207 108 q 207 64 227 52 q 247 41 275 41 l 301 41 l 301 0 z m 207 324 l 250 324 q 326 324 360 364 q 393 405 393 501 q 393 586 363 626 q 333 667 263 667 l 207 667 z"},"|":{"x_min":0,"x_max":477,"ha":477,"o":"m 211 -240 l 211 760 l 265 760 l 265 -240 z"},"t":{"x_min":0,"x_max":309,"ha":309,"o":"m 203 -10 q 141 -10 112 24 q 82 59 82 145 l 82 487 l 16 487 l 16 520 q 38 524 56 532 q 73 541 86 557 q 100 573 109 596 q 118 618 124 659 l 170 659 l 170 536 l 282 536 l 282 487 l 170 487 l 170 143 q 170 90 185 66 q 200 43 231 43 q 248 43 262 45 q 276 47 290 51 l 290 5 q 277 0 254 -5 q 231 -10 203 -10 z"},"M":{"x_min":0,"x_max":803,"ha":803,"o":"m 31 0 l 31 41 l 43 41 q 73 41 92 53 q 112 65 112 108 l 112 605 q 112 648 93 660 q 74 673 47 673 l 31 673 l 31 714 l 234 714 l 403 136 l 571 714 l 772 714 l 772 673 l 755 673 q 729 673 710 660 q 692 647 692 603 l 692 111 q 692 67 710 54 q 728 41 758 41 l 772 41 l 772 0 l 530 0 l 530 41 l 539 41 q 570 41 585 54 q 600 66 601 111 l 601 641 l 412 0 l 358 0 l 166 639 l 166 113 q 166 66 183 54 q 200 41 228 41 l 235 41 l 235 0 z"},"g":{"x_min":0,"x_max":462,"ha":462,"o":"m 198 -239 q 107 -239 62 -200 q 17 -162 17 -93 q 17 -34 50 -2 q 82 30 124 40 q 105 49 89 67 q 73 85 73 117 q 73 147 90 170 q 107 192 134 210 q 96 229 74 270 q 53 312 53 361 q 53 447 94 496 q 136 546 219 546 q 250 546 276 536 q 302 526 318 512 q 326 521 338 534 q 351 548 368 558 q 384 568 403 568 q 428 568 440 552 q 453 537 453 516 q 453 495 442 479 q 431 463 407 463 q 407 478 400 490 q 392 502 378 502 q 367 502 358 498 q 350 494 342 487 q 358 467 368 438 q 379 410 379 365 q 379 290 340 241 q 300 192 219 192 q 208 192 193 194 q 178 195 169 198 q 156 188 145 172 q 134 156 134 134 q 134 91 191 91 l 283 91 q 335 91 367 72 q 399 52 414 19 q 428 -14 428 -54 q 428 -139 372 -189 q 316 -239 198 -239 z m 217 238 q 260 238 278 268 q 295 299 295 365 q 295 433 277 466 q 259 499 216 499 q 175 499 156 466 q 137 432 137 364 q 137 300 156 269 q 175 238 217 238 z m 200 -191 q 259 -191 292 -174 q 325 -158 338 -130 q 352 -103 352 -69 q 352 -23 331 -6 q 310 12 269 12 l 182 12 q 160 12 139 4 q 118 -5 104 -26 q 91 -48 91 -87 q 91 -131 116 -161 q 140 -191 200 -191 z"},"j":{"x_min":0,"x_max":270,"ha":270,"o":"m 137 640 q 115 640 100 653 q 84 666 84 698 q 84 731 100 744 q 115 756 137 756 q 159 756 174 744 q 190 731 190 698 q 190 666 174 653 q 159 640 137 640 z m -6 -240 l -6 -194 l 0 -194 q 30 -194 52 -178 q 74 -161 86 -120 q 97 -80 97 -10 l 97 427 q 97 471 78 483 q 58 495 30 495 l 24 495 l 24 536 l 185 536 l 185 -8 q 185 -98 162 -148 q 140 -199 100 -220 q 60 -240 8 -240 z"},"i":{"x_min":0,"x_max":278,"ha":278,"o":"m 139 640 q 116 640 101 653 q 86 666 86 698 q 86 731 101 744 q 116 756 139 756 q 161 756 176 744 q 192 731 192 698 q 192 666 176 653 q 161 640 139 640 z m 19 0 l 19 41 l 30 41 q 60 41 79 54 q 98 66 98 110 l 98 425 q 98 469 80 482 q 62 495 33 495 l 25 495 l 25 536 l 187 536 l 187 115 q 187 68 206 54 q 225 41 256 41 l 266 41 l 266 0 z"},"y":{"x_min":0,"x_max":484,"ha":484,"o":"m 31 -237 l 31 -191 q 88 -191 124 -168 q 160 -145 183 -102 q 206 -60 222 -1 l 66 442 q 54 474 43 484 q 32 495 6 495 l 3 495 l 3 536 l 214 536 l 214 495 l 211 495 q 182 495 170 484 q 159 474 159 457 q 159 446 162 432 q 166 417 172 398 l 228 232 q 242 187 253 148 q 264 108 268 83 q 274 111 282 142 q 290 172 300 206 l 355 403 q 360 417 362 430 q 365 443 365 456 q 365 477 352 486 q 338 494 311 495 l 308 495 l 308 536 l 484 536 l 484 495 l 482 495 q 457 495 444 482 q 431 469 416 420 l 286 2 q 264 -71 244 -118 q 224 -164 199 -190 q 174 -216 136 -226 q 98 -237 40 -237 z"},"@":{"x_min":0,"x_max":786,"ha":786,"o":"m 370 -142 q 280 -142 209 -103 q 138 -64 97 14 q 56 93 56 214 q 56 326 86 418 q 117 509 171 576 q 225 642 297 678 q 369 714 452 714 q 545 714 610 672 q 674 630 708 557 q 741 484 741 391 q 741 296 716 225 q 690 154 651 116 q 612 77 571 77 q 494 77 471 172 l 467 172 q 449 133 421 105 q 393 77 348 77 q 297 77 260 120 q 222 162 222 248 q 222 293 235 342 q 248 391 274 434 q 301 476 342 502 q 384 529 440 529 q 466 529 488 520 q 509 510 522 499 l 556 520 l 576 520 l 534 273 q 532 256 530 235 q 527 214 527 198 q 527 159 542 142 q 558 124 577 124 q 602 124 628 155 q 654 186 672 246 q 690 305 690 389 q 690 479 659 542 q 628 604 573 637 q 518 670 447 670 q 382 670 323 638 q 264 605 218 545 q 172 485 146 402 q 119 318 119 216 q 119 106 152 38 q 186 -30 244 -62 q 302 -94 378 -94 q 450 -94 505 -68 q 560 -42 597 -10 l 618 -44 q 573 -82 512 -112 q 452 -142 370 -142 z m 367 124 q 394 124 412 144 q 431 163 442 192 q 453 220 458 248 l 494 462 q 488 474 473 483 q 458 492 440 492 q 402 492 376 466 q 349 440 332 399 q 316 358 308 314 q 300 269 300 233 q 300 177 318 150 q 337 124 367 124 z"},".":{"x_min":0,"x_max":220,"ha":220,"o":"m 110 -7 q 88 -7 72 7 q 55 21 55 57 q 55 93 72 107 q 88 121 110 121 q 132 121 148 107 q 165 93 165 57 q 165 21 148 7 q 132 -7 110 -7 z"},"p":{"x_min":0,"x_max":529,"ha":529,"o":"m 15 -237 l 15 -196 l 22 -196 q 49 -196 70 -184 q 90 -171 90 -124 l 90 427 q 90 471 70 483 q 51 495 23 495 l 12 495 l 12 536 l 165 536 l 175 450 l 178 450 q 197 493 228 520 q 259 546 309 546 q 393 546 438 480 q 483 413 483 269 q 483 124 438 56 q 392 -11 307 -11 q 260 -11 229 14 q 198 39 180 80 l 177 80 q 178 56 179 26 q 180 -4 180 -34 l 180 -129 q 180 -173 200 -184 q 221 -196 247 -196 l 260 -196 l 260 -237 z m 291 47 q 345 47 368 106 q 391 165 391 272 q 391 379 368 434 q 345 489 290 489 q 226 489 203 432 q 180 375 180 271 q 180 164 203 106 q 226 47 291 47 z"},"X":{"x_min":0,"x_max":574,"ha":574,"o":"m 7 0 l 7 41 l 12 41 q 44 41 61 56 q 78 71 101 111 l 243 354 l 103 620 q 88 648 70 660 q 53 673 30 673 l 20 673 l 20 714 l 259 714 l 259 673 l 256 673 q 227 673 218 664 q 208 656 208 644 q 208 634 214 619 q 219 604 229 585 l 306 432 l 386 583 q 395 600 401 615 q 407 630 407 644 q 407 662 394 668 q 380 673 360 673 l 358 673 l 358 714 l 546 714 l 546 673 l 538 673 q 513 673 496 658 q 478 643 454 601 l 332 385 l 487 94 q 504 65 522 53 q 539 41 555 41 l 567 41 l 567 0 l 328 0 l 328 41 l 332 41 q 383 41 383 74 q 383 85 378 98 q 372 110 354 143 l 270 308 l 180 145 q 171 127 163 108 q 155 88 155 72 q 155 41 209 41 l 212 41 l 212 0 z"},"*":{"x_min":0,"x_max":413,"ha":413,"o":"m 168 375 l 190 540 l 65 442 l 34 516 l 170 568 l 34 619 l 65 693 l 191 595 l 168 760 l 244 760 l 220 596 l 347 691 l 377 618 l 241 568 l 377 517 l 347 444 l 220 540 l 244 375 z"},"Y":{"x_min":0,"x_max":543,"ha":543,"o":"m 137 0 l 137 41 l 154 41 q 183 41 204 54 q 226 66 226 110 l 226 303 l 68 620 q 54 648 42 660 q 30 673 7 673 l -4 673 l -4 714 l 236 714 l 236 673 l 211 673 q 188 673 180 664 q 171 654 171 642 q 171 630 176 615 q 181 600 186 589 l 250 457 q 264 427 275 400 q 286 372 293 349 q 301 369 314 396 q 327 424 341 456 l 396 569 q 404 588 409 604 q 414 621 414 633 q 414 655 399 664 q 384 673 359 673 l 338 673 l 338 714 l 546 714 l 546 673 l 537 673 q 518 673 502 656 q 487 640 465 595 l 321 303 l 321 115 q 321 68 342 54 q 362 41 391 41 l 410 41 l 410 0 z"},"c":{"x_min":0,"x_max":426,"ha":426,"o":"m 244 -10 q 186 -10 142 18 q 97 46 72 107 q 46 168 46 265 q 46 372 72 434 q 97 495 141 520 q 185 546 240 546 q 305 546 348 520 q 392 494 392 444 q 392 410 372 396 q 353 383 310 383 q 310 430 296 464 q 281 497 240 497 q 208 497 185 476 q 162 456 150 406 q 137 356 137 266 q 137 159 166 104 q 195 48 258 48 q 302 48 332 71 q 361 94 376 126 q 384 120 388 111 q 392 102 392 88 q 392 66 376 44 q 361 21 328 6 q 296 -10 244 -10 z"},"!":{"x_min":0,"x_max":291,"ha":291,"o":"m 121 206 l 92 714 l 199 714 l 170 206 z m 146 -7 q 123 -7 107 7 q 91 21 91 57 q 91 93 107 107 q 123 121 146 121 q 168 121 184 107 q 200 93 200 57 q 200 21 184 7 q 168 -7 146 -7 z"},"/":{"x_min":0,"x_max":246,"ha":246,"o":"m 0 -121 l 195 760 l 246 760 l 53 -120 z"},"[":{"x_min":0,"x_max":315,"ha":315,"o":"m 85 -128 l 85 760 l 284 760 l 284 719 l 247 719 q 218 719 198 706 q 177 694 177 647 l 177 -15 q 177 -62 198 -74 q 218 -87 247 -87 l 284 -87 l 284 -128 z"},"6":{"x_min":0,"x_max":477,"ha":477,"o":"m 250 -10 q 192 -10 147 27 q 102 64 76 143 q 50 222 50 346 q 50 459 74 544 q 98 629 147 676 q 196 724 272 724 q 345 724 382 692 q 418 660 418 619 q 418 561 348 561 q 348 612 330 644 q 312 677 270 677 q 209 677 178 602 q 146 526 143 380 q 163 400 192 416 q 222 433 266 433 q 342 433 389 378 q 436 324 436 229 q 436 158 414 104 q 392 51 350 20 q 309 -10 250 -10 z m 253 42 q 297 42 320 84 q 344 127 344 219 q 344 305 320 344 q 295 384 248 384 q 211 384 184 365 q 158 346 142 326 q 144 180 174 111 q 203 42 253 42 z"},"r":{"x_min":0,"x_max":409,"ha":409,"o":"m 26 0 l 26 41 l 29 41 q 58 41 78 54 q 98 66 98 113 l 98 427 q 98 471 78 483 q 58 495 30 495 l 27 495 l 27 536 l 167 536 l 182 431 l 185 431 q 196 462 212 488 q 227 515 250 530 q 273 546 309 546 q 353 546 374 526 q 396 506 396 472 q 396 441 376 422 q 357 404 313 404 q 313 445 304 464 q 294 482 269 482 q 248 482 232 462 q 217 443 207 411 q 197 379 192 342 q 188 306 188 273 l 188 108 q 188 64 208 52 q 227 41 255 41 l 276 41 l 276 0 z"},"2":{"x_min":0,"x_max":477,"ha":477,"o":"m 44 0 l 44 69 l 191 262 q 238 322 264 369 q 291 416 302 458 q 313 500 313 546 q 313 604 292 640 q 271 675 227 675 q 188 675 167 654 q 146 634 138 600 q 131 566 131 528 q 100 528 76 542 q 53 556 53 594 q 53 648 97 686 q 141 724 227 724 q 311 724 359 678 q 407 631 407 555 q 407 478 368 410 q 328 343 260 261 l 114 78 l 311 78 q 348 78 362 98 q 376 119 384 152 l 388 171 l 427 171 l 424 0 z"},"{":{"x_min":0,"x_max":367,"ha":367,"o":"m 267 -128 q 205 -128 172 -90 q 140 -51 140 16 l 140 189 q 140 251 111 273 q 82 295 40 297 l 40 337 q 82 338 111 360 q 140 382 140 443 l 140 617 q 140 685 172 722 q 205 760 267 760 l 328 760 l 328 718 l 301 718 q 264 718 248 691 q 232 664 232 612 l 232 441 q 232 392 209 359 q 186 326 138 318 l 138 317 q 186 308 209 275 q 232 242 232 192 l 232 19 q 232 -32 248 -59 q 264 -86 301 -86 l 328 -86 l 328 -128 z"},"9":{"x_min":0,"x_max":477,"ha":477,"o":"m 194 -11 q 123 -11 95 15 q 67 41 67 72 q 67 110 97 122 q 108 90 132 66 q 155 43 199 43 q 266 43 299 118 q 332 192 336 346 q 320 322 287 300 q 254 279 210 279 q 136 279 88 330 q 41 382 41 482 q 41 552 62 607 q 84 662 125 693 q 166 724 224 724 q 282 724 328 690 q 374 655 401 580 q 428 506 428 388 q 428 274 404 184 q 381 94 330 42 q 278 -11 194 -11 z m 232 331 q 275 332 300 356 q 325 380 337 404 q 335 546 306 609 q 277 672 227 672 q 181 672 158 624 q 134 576 134 488 q 134 408 158 370 q 182 332 232 331 z"}," ":{"x_min":0,"x_max":222,"ha":222,"o":""},"I":{"x_min":0,"x_max":318,"ha":318,"o":"m 31 0 l 31 41 l 48 41 q 74 41 93 54 q 112 67 112 111 l 112 601 q 112 647 93 660 q 74 673 48 673 l 31 673 l 31 714 l 288 714 l 288 673 l 270 673 q 242 673 224 660 q 207 647 207 601 l 207 112 q 207 67 225 54 q 243 41 270 41 l 288 41 l 288 0 z"},"H":{"x_min":0,"x_max":681,"ha":681,"o":"m 31 0 l 31 41 l 48 41 q 76 41 94 54 q 112 67 112 112 l 112 605 q 112 648 93 660 q 74 673 45 673 l 31 673 l 31 714 l 284 714 l 284 673 l 270 673 q 242 673 224 660 q 207 647 207 603 l 207 398 l 474 398 l 474 602 q 474 647 456 660 q 438 673 410 673 l 398 673 l 398 714 l 650 714 l 650 673 l 634 673 q 606 673 588 660 q 569 647 569 602 l 569 108 q 569 65 588 53 q 606 41 634 41 l 650 41 l 650 0 l 398 0 l 398 41 l 410 41 q 438 41 456 54 q 474 67 474 113 l 474 349 l 207 349 l 207 112 q 207 67 224 54 q 242 41 270 41 l 284 41 l 284 0 z"},"4":{"x_min":0,"x_max":477,"ha":477,"o":"m 180 0 l 180 41 l 203 41 q 233 41 254 54 q 274 66 274 113 l 274 197 l 14 197 l 14 236 l 273 714 l 362 714 l 362 252 l 464 252 l 464 197 l 362 197 l 362 113 q 362 66 382 54 q 403 41 432 41 l 443 41 l 443 0 z m 76 252 l 274 252 l 274 440 q 274 484 275 541 q 276 598 280 645 q 274 630 260 600 q 245 571 229 540 q 213 508 202 487 z"},"~":{"x_min":0,"x_max":465,"ha":465,"o":"m 37 270 q 40 311 50 351 q 60 391 82 418 q 104 444 144 444 q 175 444 198 426 q 222 409 252 378 q 274 355 289 340 q 304 326 322 326 q 346 326 358 356 q 369 385 374 444 l 430 444 q 426 405 416 364 q 407 324 385 297 q 363 270 324 270 q 298 270 274 283 q 251 296 218 334 q 196 360 180 374 q 165 388 147 388 q 122 388 110 359 q 97 330 92 270 z"},"D":{"x_min":0,"x_max":627,"ha":627,"o":"m 31 0 l 31 41 l 48 41 q 76 41 94 54 q 112 68 112 113 l 112 605 q 112 648 93 660 q 74 673 46 673 l 31 673 l 31 714 l 296 714 q 430 714 504 620 q 578 527 578 357 q 578 248 546 168 q 515 87 452 44 q 390 0 296 0 z m 207 50 l 276 50 q 376 50 426 129 q 475 208 475 357 q 475 506 426 586 q 376 665 277 665 l 207 665 z"},"^":{"x_min":0,"x_max":465,"ha":465,"o":"m 36 267 l 216 714 l 247 714 l 428 267 l 369 267 l 231 623 l 95 267 z"},"0":{"x_min":0,"x_max":477,"ha":477,"o":"m 239 -10 q 130 -10 84 87 q 37 184 37 359 q 37 472 56 554 q 76 636 121 680 q 166 724 240 724 q 345 724 392 628 q 440 532 440 358 q 440 186 392 88 q 343 -10 239 -10 z m 239 41 q 300 41 323 124 q 346 208 346 358 q 346 508 323 590 q 300 673 240 673 q 178 673 155 590 q 132 508 132 358 q 132 208 155 124 q 178 41 239 41 z"},"F":{"x_min":0,"x_max":509,"ha":509,"o":"m 31 0 l 31 41 l 44 41 q 75 41 94 53 q 112 65 112 108 l 112 605 q 112 648 94 660 q 75 673 47 673 l 31 673 l 31 714 l 468 714 l 474 540 l 426 540 l 421 583 q 418 615 401 640 q 384 665 346 665 l 207 665 l 207 375 l 412 375 l 412 326 l 207 326 l 207 112 q 207 67 226 54 q 246 41 278 41 l 304 41 l 304 0 z"},"`":{"x_min":0,"x_max":258,"ha":258,"o":"m 181 606 q 158 624 129 652 q 100 681 76 710 q 51 738 40 756 l 40 766 l 139 766 q 148 744 162 717 q 175 690 190 664 q 206 638 218 619 l 218 606 z"},"k":{"x_min":0,"x_max":507,"ha":507,"o":"m 15 0 l 15 41 l 23 41 q 50 41 70 54 q 91 66 91 113 l 91 651 q 91 695 70 707 q 49 719 23 719 l 15 719 l 15 760 l 180 760 l 180 375 q 180 362 180 340 q 179 319 178 298 q 177 277 176 262 q 176 247 176 246 l 283 385 q 311 420 320 440 q 329 460 329 472 q 329 495 287 495 l 287 536 l 477 536 l 477 495 q 447 495 419 470 q 391 445 357 401 l 300 326 l 413 125 q 436 85 456 63 q 477 41 505 41 l 508 41 l 508 0 l 496 0 q 457 0 432 3 q 406 6 388 16 q 370 26 356 46 q 341 67 323 101 l 239 262 l 180 194 l 180 108 q 180 64 201 52 q 222 41 248 41 l 252 41 l 252 0 z"},"u":{"x_min":0,"x_max":548,"ha":548,"o":"m 232 -10 q 162 -10 126 36 q 89 82 89 186 l 89 427 q 89 471 70 483 q 50 495 22 495 l 19 495 l 19 536 l 178 536 l 178 189 q 178 122 196 87 q 214 52 264 52 q 318 52 342 97 q 366 142 366 215 l 366 422 q 366 470 347 482 q 328 495 300 495 l 297 495 l 297 536 l 455 536 l 455 109 q 455 64 475 52 q 495 41 523 41 l 527 41 l 527 0 l 384 0 l 372 82 l 368 82 q 343 28 310 9 q 276 -10 232 -10 z"},"]":{"x_min":0,"x_max":315,"ha":315,"o":"m 32 -128 l 32 -87 l 68 -87 q 97 -87 118 -74 q 138 -62 138 -15 l 138 647 q 138 694 118 706 q 97 719 68 719 l 32 719 l 32 760 l 230 760 l 230 -128 z"},"U":{"x_min":0,"x_max":616,"ha":616,"o":"m 310 -10 q 210 -10 152 42 q 94 94 94 216 l 94 605 q 94 649 74 661 q 54 673 24 673 l 13 673 l 13 714 l 269 714 l 269 673 l 258 673 q 228 673 208 660 q 189 648 189 601 l 189 210 q 189 122 228 86 q 266 49 328 49 q 398 49 433 94 q 468 140 468 207 l 468 605 q 468 649 448 661 q 429 673 399 673 l 388 673 l 388 714 l 603 714 l 603 673 l 592 673 q 562 673 542 660 q 522 648 522 601 l 522 205 q 522 105 468 48 q 415 -10 310 -10 z"},"o":{"x_min":0,"x_max":498,"ha":498,"o":"m 248 -10 q 154 -10 100 59 q 46 128 46 269 q 46 409 98 478 q 149 546 251 546 q 344 546 398 478 q 452 409 452 269 q 452 128 400 59 q 348 -10 248 -10 z m 250 41 q 312 41 336 98 q 361 156 361 269 q 361 381 336 438 q 310 494 249 494 q 188 494 162 438 q 137 381 137 269 q 137 156 162 98 q 188 41 250 41 z"},"N":{"x_min":0,"x_max":654,"ha":654,"o":"m 31 0 l 31 41 l 43 41 q 74 41 93 54 q 112 66 112 113 l 112 605 q 112 649 93 661 q 74 673 45 673 l 31 673 l 31 714 l 196 714 l 498 153 l 498 605 q 498 648 479 660 q 460 673 431 673 l 418 673 l 418 714 l 633 714 l 633 673 l 618 673 q 590 673 571 660 q 552 647 552 601 l 552 0 l 486 0 l 166 589 l 166 113 q 166 66 184 54 q 202 41 232 41 l 247 41 l 247 0 z"},"+":{"x_min":0,"x_max":465,"ha":465,"o":"m 202 143 l 202 329 l 50 329 l 50 386 l 202 386 l 202 572 l 261 572 l 261 386 l 416 386 l 416 329 l 261 329 l 261 143 z"},"G":{"x_min":0,"x_max":617,"ha":617,"o":"m 346 -10 q 246 -10 180 36 q 113 82 80 164 q 48 247 48 358 q 48 466 82 548 q 116 631 184 678 q 251 724 350 724 q 444 724 494 692 q 543 660 543 613 q 543 581 521 562 q 499 543 463 543 q 463 574 452 604 q 440 633 414 652 q 389 672 347 672 q 244 672 198 593 q 152 514 152 358 q 152 206 199 125 q 246 44 359 44 q 382 44 404 47 q 426 50 443 57 l 443 221 q 443 265 424 276 q 406 288 378 288 l 371 288 l 371 329 l 598 329 l 598 288 l 592 288 q 566 288 552 276 q 538 264 538 217 l 538 35 q 494 12 448 1 q 402 -10 346 -10 z"},"q":{"x_min":0,"x_max":529,"ha":529,"o":"m 256 -237 l 256 -196 l 280 -196 q 308 -196 329 -184 q 350 -171 350 -123 l 350 -38 q 350 -18 350 7 q 351 32 352 55 q 352 78 353 91 l 350 91 q 330 44 300 17 q 269 -10 217 -10 q 134 -10 90 56 q 45 123 45 267 q 45 412 90 479 q 136 546 222 546 q 270 546 302 522 q 333 497 352 458 l 356 458 l 372 536 l 514 536 l 514 495 l 507 495 q 479 495 458 482 q 438 470 438 423 l 438 -127 q 438 -172 459 -184 q 480 -196 508 -196 l 512 -196 l 512 -237 z m 238 48 q 296 48 323 102 q 350 155 350 267 q 350 374 326 431 q 302 488 237 488 q 183 488 160 433 q 137 378 137 266 q 137 156 160 102 q 183 48 238 48 z"},"d":{"x_min":0,"x_max":529,"ha":529,"o":"m 218 -10 q 135 -10 90 56 q 45 123 45 267 q 45 412 90 479 q 135 546 220 546 q 270 546 300 522 q 330 497 348 458 l 353 458 q 351 482 350 510 q 350 538 350 564 l 350 650 q 350 695 329 707 q 308 719 280 719 l 273 719 l 273 760 l 438 760 l 438 111 q 438 67 458 54 q 477 41 506 41 l 514 41 l 514 0 l 364 0 l 354 91 l 351 91 q 332 44 300 17 q 269 -10 218 -10 z m 238 48 q 300 48 325 106 q 350 164 350 267 q 350 374 326 431 q 302 488 237 488 q 183 488 160 431 q 137 374 137 266 q 137 156 160 102 q 183 48 238 48 z"},"1":{"x_min":0,"x_max":477,"ha":477,"o":"m 84 0 l 84 41 l 135 41 q 166 41 186 53 q 206 65 206 113 l 206 640 q 174 596 148 568 q 122 539 96 539 q 77 539 65 553 q 53 567 53 590 q 78 598 107 614 q 136 630 179 667 l 239 718 l 296 718 l 296 113 q 296 66 316 54 q 336 41 368 41 l 406 41 l 406 0 z"},"5":{"x_min":0,"x_max":477,"ha":477,"o":"m 208 -10 q 144 -10 108 7 q 73 24 58 48 q 44 72 44 93 q 44 120 59 137 q 74 154 100 154 q 100 109 126 76 q 151 43 203 43 q 237 43 264 60 q 291 76 306 114 q 322 152 322 218 q 322 297 288 337 q 254 377 197 377 q 158 377 132 368 q 106 360 90 351 l 70 360 l 98 714 l 389 714 l 392 565 l 352 565 l 348 589 q 342 615 336 626 q 329 636 303 636 l 137 636 l 119 412 q 134 418 160 424 q 186 429 217 429 q 304 429 360 376 q 417 323 417 218 q 417 151 391 100 q 365 48 318 19 q 271 -10 208 -10 z"}}}
